<mxfile host="app.diagrams.net" modified="2022-04-09T06:27:23.954Z" agent="5.0 (Windows NT 10.0; Win64; x64) AppleWebKit/537.36 (KHTML, like Gecko) Chrome/99.0.4844.84 Safari/537.36" etag="k9gixw7hOTK6qZa9lvTg" version="17.4.1" type="github">
  <diagram id="SiIOvYjucIHnb6IEKg6Q" name="Page-1">
    <mxGraphModel dx="1199" dy="516" grid="1" gridSize="10" guides="1" tooltips="1" connect="1" arrows="1" fold="1" page="1" pageScale="1" pageWidth="827" pageHeight="1169" math="0" shadow="0">
      <root>
        <mxCell id="0" />
        <mxCell id="1" parent="0" />
        <mxCell id="leYLQKTOhxLSj_rTNv0q-25" value="&lt;p style=&quot;margin:0px;margin-top:4px;text-align:center;&quot;&gt;&lt;b&gt;Class&lt;/b&gt;&lt;/p&gt;&lt;hr size=&quot;1&quot;/&gt;&lt;div style=&quot;height:2px;&quot;&gt;&lt;/div&gt;" style="verticalAlign=top;align=left;overflow=fill;fontSize=12;fontFamily=Helvetica;html=1;" vertex="1" parent="1">
          <mxGeometry x="190" y="80" width="230" height="550" as="geometry" />
        </mxCell>
        <mxCell id="leYLQKTOhxLSj_rTNv0q-26" value="" style="ellipse;html=1;shape=endState;fillColor=#000000;strokeColor=#ff0000;" vertex="1" parent="1">
          <mxGeometry x="289" y="580" width="30" height="30" as="geometry" />
        </mxCell>
        <mxCell id="leYLQKTOhxLSj_rTNv0q-37" style="edgeStyle=orthogonalEdgeStyle;rounded=0;orthogonalLoop=1;jettySize=auto;html=1;exitX=0.5;exitY=1;exitDx=0;exitDy=0;strokeColor=#330000;" edge="1" parent="1" source="leYLQKTOhxLSj_rTNv0q-27" target="leYLQKTOhxLSj_rTNv0q-30">
          <mxGeometry relative="1" as="geometry" />
        </mxCell>
        <mxCell id="leYLQKTOhxLSj_rTNv0q-27" value="" style="ellipse;html=1;shape=startState;fillColor=#000000;strokeColor=#ff0000;" vertex="1" parent="1">
          <mxGeometry x="280" y="240" width="30" height="30" as="geometry" />
        </mxCell>
        <mxCell id="leYLQKTOhxLSj_rTNv0q-40" style="edgeStyle=orthogonalEdgeStyle;rounded=0;orthogonalLoop=1;jettySize=auto;html=1;exitX=0.5;exitY=1;exitDx=0;exitDy=0;strokeColor=#330000;" edge="1" parent="1" source="leYLQKTOhxLSj_rTNv0q-30" target="leYLQKTOhxLSj_rTNv0q-39">
          <mxGeometry relative="1" as="geometry" />
        </mxCell>
        <mxCell id="leYLQKTOhxLSj_rTNv0q-30" value="测试" style="rounded=1;whiteSpace=wrap;html=1;arcSize=40;fontColor=#000000;fillColor=#FFFFFF;strokeColor=#330000;shadow=1;" vertex="1" parent="1">
          <mxGeometry x="235" y="300" width="120" height="40" as="geometry" />
        </mxCell>
        <mxCell id="leYLQKTOhxLSj_rTNv0q-32" value="" style="shape=line;html=1;strokeWidth=6;strokeColor=#330000;" vertex="1" parent="1">
          <mxGeometry x="204" y="520" width="200" height="10" as="geometry" />
        </mxCell>
        <mxCell id="leYLQKTOhxLSj_rTNv0q-33" value="" style="edgeStyle=orthogonalEdgeStyle;html=1;verticalAlign=bottom;endArrow=open;endSize=8;strokeColor=#330000;rounded=0;entryX=0.5;entryY=0;entryDx=0;entryDy=0;" edge="1" source="leYLQKTOhxLSj_rTNv0q-32" parent="1" target="leYLQKTOhxLSj_rTNv0q-26">
          <mxGeometry relative="1" as="geometry">
            <mxPoint x="150" y="580" as="targetPoint" />
          </mxGeometry>
        </mxCell>
        <mxCell id="leYLQKTOhxLSj_rTNv0q-42" style="edgeStyle=orthogonalEdgeStyle;rounded=0;orthogonalLoop=1;jettySize=auto;html=1;exitX=0.5;exitY=1;exitDx=0;exitDy=0;strokeColor=#330000;" edge="1" parent="1" source="leYLQKTOhxLSj_rTNv0q-39" target="leYLQKTOhxLSj_rTNv0q-41">
          <mxGeometry relative="1" as="geometry" />
        </mxCell>
        <mxCell id="leYLQKTOhxLSj_rTNv0q-39" value="Activity" style="rounded=1;whiteSpace=wrap;html=1;arcSize=40;fontColor=#000000;fillColor=#FFFFFF;strokeColor=#330000;shadow=1;" vertex="1" parent="1">
          <mxGeometry x="235" y="370" width="120" height="40" as="geometry" />
        </mxCell>
        <mxCell id="leYLQKTOhxLSj_rTNv0q-41" value="Activity" style="rounded=1;whiteSpace=wrap;html=1;arcSize=40;fontColor=#000000;fillColor=#FFFFFF;strokeColor=#330000;shadow=1;" vertex="1" parent="1">
          <mxGeometry x="235" y="440" width="120" height="40" as="geometry" />
        </mxCell>
      </root>
    </mxGraphModel>
  </diagram>
</mxfile>
